<svg width="87" height="12" viewBox="0 0 87 12" fill="none" xmlns="http://www.w3.org/2000/svg">
<path d="M1.40029 11.6426C1.07832 11.6426 0.823863 11.5525 0.636914 11.3722C0.460352 11.1813 0.37207 10.9109 0.37207 10.5609V1.38268C0.37207 1.03273 0.460352 0.767619 0.636914 0.587341C0.823863 0.396459 1.08871 0.301018 1.43145 0.301018H6.86853C7.13857 0.301018 7.3411 0.369948 7.47612 0.507807C7.61114 0.645667 7.67864 0.841851 7.67864 1.09636C7.67864 1.36147 7.61114 1.56826 7.47612 1.71673C7.3411 1.85459 7.13857 1.92352 6.86853 1.92352H2.36619V5.08898H6.54137C6.80102 5.08898 6.99836 5.15791 7.13338 5.29577C7.27878 5.43363 7.35148 5.62981 7.35148 5.88432C7.35148 6.14944 7.27878 6.35623 7.13338 6.50469C6.99836 6.64255 6.80102 6.71148 6.54137 6.71148H2.36619V10.5609C2.36619 11.282 2.04422 11.6426 1.40029 11.6426Z" fill="white"/>
<path d="M10.5228 11.6267C10.2112 11.6267 9.97233 11.5313 9.80616 11.3404C9.63998 11.1495 9.55689 10.8844 9.55689 10.545V4.70722C9.55689 4.35726 9.63998 4.09215 9.80616 3.91187C9.97233 3.72099 10.2112 3.62555 10.5228 3.62555C10.8344 3.62555 11.0733 3.72099 11.2394 3.91187C11.416 4.09215 11.5043 4.35726 11.5043 4.70722V10.545C11.5043 10.8844 11.4212 11.1495 11.255 11.3404C11.0888 11.5313 10.8448 11.6267 10.5228 11.6267ZM10.5228 2.14621C10.1593 2.14621 9.87367 2.05607 9.66595 1.8758C9.46861 1.68491 9.36994 1.4251 9.36994 1.09636C9.36994 0.757014 9.46861 0.497202 9.66595 0.316925C9.87367 0.136647 10.1593 0.0465088 10.5228 0.0465088C10.8967 0.0465088 11.1823 0.136647 11.3796 0.316925C11.577 0.497202 11.6756 0.757014 11.6756 1.09636C11.6756 1.4251 11.577 1.68491 11.3796 1.8758C11.1823 2.05607 10.8967 2.14621 10.5228 2.14621Z" fill="white"/>
<path d="M14.4936 11.6426C14.182 11.6426 13.9432 11.5578 13.777 11.3881C13.6108 11.2078 13.5277 10.9533 13.5277 10.6246V4.61177C13.5277 4.28303 13.6108 4.03383 13.777 3.86415C13.9432 3.69448 14.1769 3.60964 14.478 3.60964C14.7792 3.60964 15.0129 3.69448 15.1791 3.86415C15.3453 4.03383 15.4284 4.28303 15.4284 4.61177V5.69344L15.257 5.29577C15.4855 4.73373 15.8386 4.30954 16.3164 4.02322C16.8045 3.72629 17.355 3.57783 17.9678 3.57783C18.5805 3.57783 19.0843 3.69448 19.4789 3.92778C19.8736 4.16108 20.1696 4.51633 20.3669 4.99354C20.5643 5.46014 20.6629 6.054 20.6629 6.77511V10.6246C20.6629 10.9533 20.5798 11.2078 20.4137 11.3881C20.2475 11.5578 20.0086 11.6426 19.697 11.6426C19.3854 11.6426 19.1414 11.5578 18.9648 11.3881C18.7986 11.2078 18.7155 10.9533 18.7155 10.6246V6.87055C18.7155 6.26609 18.6013 5.826 18.3728 5.55028C18.1547 5.27456 17.812 5.1367 17.3446 5.1367C16.7734 5.1367 16.3164 5.32228 15.9736 5.69344C15.6413 6.054 15.4751 6.5365 15.4751 7.14096V10.6246C15.4751 11.3033 15.1479 11.6426 14.4936 11.6426Z" fill="white"/>
<path d="M25.5697 11.6744C24.905 11.6744 24.3182 11.51 23.8093 11.1813C23.3108 10.8526 22.9213 10.386 22.6409 9.7815C22.3604 9.16644 22.2202 8.44532 22.2202 7.61817C22.2202 6.78041 22.3604 6.0646 22.6409 5.47074C22.9213 4.86628 23.3108 4.39968 23.8093 4.07094C24.3182 3.7422 24.905 3.57783 25.5697 3.57783C26.2033 3.57783 26.7537 3.7369 27.2211 4.05504C27.6989 4.37317 28.0208 4.79205 28.187 5.31168H28.0156V1.17589C28.0156 0.847153 28.0987 0.597946 28.2649 0.428273C28.4311 0.2586 28.67 0.173763 28.9815 0.173763C29.2931 0.173763 29.532 0.2586 29.6982 0.428273C29.8747 0.597946 29.963 0.847153 29.963 1.17589V10.6246C29.963 10.9533 29.8799 11.2078 29.7137 11.3881C29.5476 11.5578 29.3087 11.6426 28.9971 11.6426C28.6855 11.6426 28.4467 11.5578 28.2805 11.3881C28.1143 11.2078 28.0312 10.9533 28.0312 10.6246V9.38383L28.2026 9.86103C28.0468 10.4125 27.73 10.8526 27.2523 11.1813C26.7745 11.51 26.2137 11.6744 25.5697 11.6744ZM26.115 10.1633C26.4993 10.1633 26.8368 10.0678 27.1276 9.87694C27.4184 9.68606 27.6417 9.40504 27.7975 9.03388C27.9637 8.65211 28.0468 8.18021 28.0468 7.61817C28.0468 6.7698 27.8702 6.13883 27.5171 5.72525C27.164 5.30107 26.6966 5.08898 26.115 5.08898C25.7307 5.08898 25.3932 5.18442 25.1023 5.3753C24.8115 5.55558 24.583 5.8366 24.4169 6.21837C24.2611 6.58953 24.1832 7.05613 24.1832 7.61817C24.1832 8.45593 24.3597 9.0922 24.7129 9.52699C25.066 9.95117 25.5334 10.1633 26.115 10.1633Z" fill="white"/>
<path d="M32.1847 11.6267C31.977 11.6267 31.8108 11.579 31.6862 11.4835C31.5616 11.3881 31.4889 11.2608 31.4681 11.1018C31.4473 10.9427 31.4785 10.7624 31.5616 10.5609L35.7835 0.889571C35.8874 0.635062 36.0172 0.454784 36.173 0.348739C36.3391 0.242693 36.5209 0.18967 36.7182 0.18967C36.9052 0.18967 37.0766 0.242693 37.2323 0.348739C37.3985 0.454784 37.5335 0.635062 37.6374 0.889571L41.8593 10.5609C41.9528 10.7624 41.9891 10.948 41.9684 11.1177C41.9476 11.2767 41.8801 11.404 41.7658 11.4994C41.6516 11.5843 41.4906 11.6267 41.2829 11.6267C41.0544 11.6267 40.8726 11.5684 40.7376 11.4517C40.6026 11.3351 40.4832 11.1548 40.3793 10.9109L39.2888 8.33398L40.021 8.77937H33.3843L34.101 8.33398L33.026 10.9109C32.9221 11.1654 32.8079 11.351 32.6833 11.4676C32.5586 11.5737 32.3925 11.6267 32.1847 11.6267ZM36.6871 2.13031L34.3346 7.82496L33.9452 7.44319H39.4446L39.0863 7.82496L36.7182 2.13031H36.6871Z" fill="white"/>
<path d="M44.6687 11.6426C44.3467 11.6426 44.0922 11.5525 43.9053 11.3722C43.7287 11.1813 43.6404 10.9109 43.6404 10.5609V1.38268C43.6404 1.03273 43.7287 0.767619 43.9053 0.587341C44.0922 0.396459 44.3571 0.301018 44.6998 0.301018H50.1369C50.4069 0.301018 50.6095 0.369948 50.7445 0.507807C50.8795 0.645667 50.947 0.841851 50.947 1.09636C50.947 1.36147 50.8795 1.56826 50.7445 1.71673C50.6095 1.85459 50.4069 1.92352 50.1369 1.92352H45.6346V5.08898H49.8097C50.0694 5.08898 50.2667 5.15791 50.4018 5.29577C50.5472 5.43363 50.6199 5.62981 50.6199 5.88432C50.6199 6.14944 50.5472 6.35623 50.4018 6.50469C50.2667 6.64255 50.0694 6.71148 49.8097 6.71148H45.6346V10.5609C45.6346 11.282 45.3126 11.6426 44.6687 11.6426Z" fill="white"/>
<path d="M53.0464 11.6426C52.7244 11.6426 52.4752 11.5578 52.2986 11.3881C52.1324 11.2078 52.0494 10.9533 52.0494 10.6246V4.61177C52.0494 4.28303 52.1324 4.03383 52.2986 3.86415C52.4648 3.69448 52.6985 3.60964 52.9997 3.60964C53.3009 3.60964 53.5346 3.69448 53.7007 3.86415C53.8669 4.03383 53.95 4.28303 53.95 4.61177V5.61391H53.7942C53.9396 4.97763 54.2252 4.49512 54.6511 4.16638C55.0769 3.83764 55.6429 3.64146 56.3492 3.57783C56.5673 3.55662 56.7387 3.61494 56.8633 3.7528C56.9983 3.88006 57.0762 4.08155 57.097 4.35726C57.1177 4.62238 57.0554 4.83977 56.91 5.00945C56.775 5.16851 56.5673 5.26396 56.2869 5.29577L55.9441 5.32758C55.3106 5.39121 54.8328 5.5927 54.5108 5.93204C54.1889 6.26078 54.0279 6.72739 54.0279 7.33185V10.6246C54.0279 10.9533 53.9448 11.2078 53.7786 11.3881C53.6125 11.5578 53.3684 11.6426 53.0464 11.6426Z" fill="white"/>
<path d="M59.116 11.6267C58.8045 11.6267 58.5656 11.5313 58.3994 11.3404C58.2332 11.1495 58.1501 10.8844 58.1501 10.545V4.70722C58.1501 4.35726 58.2332 4.09215 58.3994 3.91187C58.5656 3.72099 58.8045 3.62555 59.116 3.62555C59.4276 3.62555 59.6665 3.72099 59.8327 3.91187C60.0092 4.09215 60.0975 4.35726 60.0975 4.70722V10.545C60.0975 10.8844 60.0144 11.1495 59.8483 11.3404C59.6821 11.5313 59.438 11.6267 59.116 11.6267ZM59.116 2.14621C58.7525 2.14621 58.4669 2.05607 58.2592 1.8758C58.0619 1.68491 57.9632 1.4251 57.9632 1.09636C57.9632 0.757014 58.0619 0.497202 58.2592 0.316925C58.4669 0.136647 58.7525 0.0465088 59.116 0.0465088C59.4899 0.0465088 59.7756 0.136647 59.9729 0.316925C60.1702 0.497202 60.2689 0.757014 60.2689 1.09636C60.2689 1.4251 60.1702 1.68491 59.9729 1.8758C59.7756 2.05607 59.4899 2.14621 59.116 2.14621Z" fill="white"/>
<path d="M65.8755 11.6744C65.0135 11.6744 64.2709 11.51 63.6477 11.1813C63.0246 10.8526 62.5416 10.386 62.1989 9.7815C61.8665 9.17704 61.7003 8.46123 61.7003 7.63408C61.7003 6.82813 61.8613 6.12293 62.1833 5.51847C62.5156 4.914 62.9674 4.4421 63.5387 4.10276C64.1203 3.7528 64.7798 3.57783 65.5172 3.57783C66.0573 3.57783 66.5402 3.66797 66.966 3.84825C67.4023 4.02852 67.771 4.28834 68.0722 4.62768C68.3837 4.96703 68.6174 5.38061 68.7732 5.86842C68.9394 6.34562 69.0225 6.88645 69.0225 7.49091C69.0225 7.6818 68.955 7.83026 68.82 7.93631C68.6953 8.03175 68.5136 8.07947 68.2747 8.07947H63.2738V6.93417H67.6515L67.4023 7.17278C67.4023 6.68497 67.3296 6.27669 67.1842 5.94795C67.0491 5.61921 66.8466 5.37 66.5766 5.20033C66.3169 5.02005 65.9898 4.92991 65.5951 4.92991C65.1589 4.92991 64.785 5.03596 64.4734 5.24805C64.1722 5.44953 63.9385 5.74116 63.7723 6.12293C63.6166 6.49409 63.5387 6.93948 63.5387 7.4591V7.57045C63.5387 8.44002 63.736 9.0922 64.1307 9.52699C64.5357 9.95117 65.1277 10.1633 65.9067 10.1633C66.1767 10.1633 66.4779 10.1315 66.8103 10.0678C67.153 9.99359 67.475 9.87164 67.7762 9.70197C67.9943 9.57471 68.1864 9.52169 68.3526 9.5429C68.5188 9.5535 68.6486 9.61183 68.7421 9.71787C68.8459 9.82392 68.9082 9.95648 68.929 10.1155C68.9498 10.264 68.9186 10.4178 68.8355 10.5768C68.7628 10.7359 68.633 10.8738 68.4461 10.9904C68.0826 11.2237 67.6619 11.3987 67.1842 11.5153C66.7168 11.6214 66.2806 11.6744 65.8755 11.6744Z" fill="white"/>
<path d="M71.5306 11.6426C71.219 11.6426 70.9801 11.5578 70.814 11.3881C70.6478 11.2078 70.5647 10.9533 70.5647 10.6246V4.61177C70.5647 4.28303 70.6478 4.03383 70.814 3.86415C70.9801 3.69448 71.2138 3.60964 71.515 3.60964C71.8162 3.60964 72.0499 3.69448 72.2161 3.86415C72.3822 4.03383 72.4653 4.28303 72.4653 4.61177V5.69344L72.294 5.29577C72.5225 4.73373 72.8756 4.30954 73.3533 4.02322C73.8415 3.72629 74.3919 3.57783 75.0047 3.57783C75.6175 3.57783 76.1212 3.69448 76.5159 3.92778C76.9106 4.16108 77.2066 4.51633 77.4039 4.99354C77.6012 5.46014 77.6999 6.054 77.6999 6.77511V10.6246C77.6999 10.9533 77.6168 11.2078 77.4506 11.3881C77.2845 11.5578 77.0456 11.6426 76.734 11.6426C76.4224 11.6426 76.1783 11.5578 76.0018 11.3881C75.8356 11.2078 75.7525 10.9533 75.7525 10.6246V6.87055C75.7525 6.26609 75.6383 5.826 75.4098 5.55028C75.1917 5.27456 74.8489 5.1367 74.3816 5.1367C73.8103 5.1367 73.3533 5.32228 73.0106 5.69344C72.6782 6.054 72.5121 6.5365 72.5121 7.14096V10.6246C72.5121 11.3033 72.1849 11.6426 71.5306 11.6426Z" fill="white"/>
<path d="M82.6067 11.6744C81.942 11.6744 81.3552 11.51 80.8463 11.1813C80.3477 10.8526 79.9582 10.386 79.6778 9.7815C79.3974 9.16644 79.2572 8.44532 79.2572 7.61817C79.2572 6.78041 79.3974 6.0646 79.6778 5.47074C79.9582 4.86628 80.3477 4.39968 80.8463 4.07094C81.3552 3.7422 81.942 3.57783 82.6067 3.57783C83.2402 3.57783 83.7907 3.7369 84.2581 4.05504C84.7358 4.37317 85.0578 4.79205 85.224 5.31168H85.0526V1.17589C85.0526 0.847153 85.1357 0.597946 85.3019 0.428273C85.468 0.2586 85.7069 0.173763 86.0185 0.173763C86.3301 0.173763 86.569 0.2586 86.7351 0.428273C86.9117 0.597946 87 0.847153 87 1.17589V10.6246C87 10.9533 86.9169 11.2078 86.7507 11.3881C86.5845 11.5578 86.3457 11.6426 86.0341 11.6426C85.7225 11.6426 85.4836 11.5578 85.3174 11.3881C85.1513 11.2078 85.0682 10.9533 85.0682 10.6246V9.38383L85.2395 9.86103C85.0837 10.4125 84.767 10.8526 84.2892 11.1813C83.8115 11.51 83.2506 11.6744 82.6067 11.6744ZM83.152 10.1633C83.5362 10.1633 83.8738 10.0678 84.1646 9.87694C84.4554 9.68606 84.6787 9.40504 84.8345 9.03388C85.0007 8.65211 85.0838 8.18021 85.0838 7.61817C85.0838 6.7698 84.9072 6.13883 84.5541 5.72525C84.2009 5.30107 83.7336 5.08898 83.152 5.08898C82.7677 5.08898 82.4301 5.18442 82.1393 5.3753C81.8485 5.55558 81.62 5.8366 81.4538 6.21837C81.2981 6.58953 81.2202 7.05613 81.2202 7.61817C81.2202 8.45593 81.3967 9.0922 81.7498 9.52699C82.103 9.95117 82.5703 10.1633 83.152 10.1633Z" fill="white"/>
</svg>
